<?xml version="1.0" encoding="utf-8"?>
<!-- Generator: Adobe Illustrator 21.0.2, SVG Export Plug-In . SVG Version: 6.00 Build 0)  -->
<svg version="1.1" id="图层_1" xmlns="http://www.w3.org/2000/svg" xmlns:xlink="http://www.w3.org/1999/xlink" x="0px" y="0px"
	 viewBox="0 0 90 90" style="enable-background:new 0 0 90 90;" xml:space="preserve">
<style type="text/css">
	.st0{fill:#52B3FF;}
	.st1{fill:#00FFC7;}
	.st2{clip-path:url(#SVGID_2_);fill:#BAE1FF;}
	.st3{clip-path:url(#SVGID_4_);fill:#99FFE8;}
	.st4{clip-path:url(#SVGID_7_);}
	.st5{clip-path:url(#SVGID_8_);filter:url(#filter-top);}
	.st6{fill:none;stroke:#000000;stroke-width:3;}
	.st7{clip-path:url(#SVGID_11_);}
	.st8{clip-path:url(#SVGID_12_);filter:url(#filter-top);}
	.st9{fill:#FFFFFF;}
	.st10{fill:#999999;}
</style>
<filter  id="filter-top" x="0" y="0">
	<feGaussianBlur  in="SourceGraphic" stdDeviation="3"></feGaussianBlur>
</filter>
<path class="st0" d="M25,5h60L42,55L25,5z"/>
<path class="st1" d="M5,85h60L48,35L5,85z"/>
<g>
	<defs>
		<polygon id="SVGID_1_" points="25,5 85,5 42,55 		"/>
	</defs>
	<clipPath id="SVGID_2_">
		<use xlink:href="#SVGID_1_"  style="overflow:visible;"/>
	</clipPath>
	<path class="st2" d="M8,12h60L25,62L8,12z"/>
</g>
<g>
	<defs>
		<polygon id="SVGID_3_" points="5,85 65,85 48,35 		"/>
	</defs>
	<clipPath id="SVGID_4_">
		<use xlink:href="#SVGID_3_"  style="overflow:visible;"/>
	</clipPath>
	<path class="st3" d="M22,78h60L65,28L22,78z"/>
</g>
<g>
	<defs>
		<polygon id="SVGID_5_" points="25,5 85,5 42,55 		"/>
	</defs>
	<defs>
		<polygon id="SVGID_6_" points="8,12 68,12 25,62 		"/>
	</defs>
	<clipPath id="SVGID_7_">
		<use xlink:href="#SVGID_5_"  style="overflow:visible;"/>
	</clipPath>
	<clipPath id="SVGID_8_" class="st4">
		<use xlink:href="#SVGID_6_"  style="overflow:visible;"/>
	</clipPath>
	<g class="st5">
		<polyline class="st6" points="14,10 74,10 31,60 		"/>
	</g>
</g>
<g>
	<defs>
		<polygon id="SVGID_9_" points="5,85 65,85 48,35 		"/>
	</defs>
	<defs>
		<polygon id="SVGID_10_" points="22,78 82,78 65,28 		"/>
	</defs>
	<clipPath id="SVGID_11_">
		<use xlink:href="#SVGID_9_"  style="overflow:visible;"/>
	</clipPath>
	<clipPath id="SVGID_12_" class="st7">
		<use xlink:href="#SVGID_10_"  style="overflow:visible;"/>
	</clipPath>
	<g class="st8">
		<polyline class="st6" points="76,80 16,80 59,30 		"/>
	</g>
</g>
<circle class="st9" cx="45" cy="45" r="10"/>
<path class="st10" d="M56.1,46.5c0.1-0.5,0.1-1,0.1-1.5s0-1-0.1-1.5l3.2-2.5c0.3-0.2,0.4-0.6,0.2-1l-3-5.2c-0.2-0.3-0.6-0.5-0.9-0.3
	l-3.7,1.5c-0.8-0.6-1.6-1.1-2.5-1.5l-0.6-4C48.7,30.3,48.4,30,48,30h-6c-0.4,0-0.7,0.3-0.7,0.6l-0.6,4c-0.9,0.4-1.8,0.9-2.5,1.5
	l-3.7-1.5c-0.3-0.1-0.7,0-0.9,0.3l-3,5.2c-0.2,0.3-0.1,0.7,0.2,1l3.2,2.5c-0.1,0.5-0.1,1-0.1,1.5s0,1,0.1,1.5l-3.2,2.5
	c-0.3,0.2-0.4,0.6-0.2,1l3,5.2c0.2,0.3,0.6,0.5,0.9,0.3l3.7-1.5c0.8,0.6,1.6,1.1,2.5,1.5l0.6,4c0.1,0.4,0.4,0.6,0.7,0.6h6
	c0.4,0,0.7-0.3,0.7-0.6l0.6-4c0.9-0.4,1.8-0.9,2.5-1.5l3.7,1.5c0.3,0.1,0.7,0,0.9-0.3l3-5.2c0.2-0.3,0.1-0.7-0.2-1L56.1,46.5z
	 M45,50.3c-2.9,0-5.3-2.3-5.3-5.3s2.3-5.3,5.3-5.3s5.3,2.3,5.3,5.3S47.9,50.3,45,50.3z"/>
</svg>
